External Loads File
version=1
nRows=85
nColumns=13
Range=5.000000e-03-10 seconds
endheader
time 	forceRightX 	forceRightY 	forceRightZ 	pointRightX 	pointRightY 	pointRightZ 	forceLeftX 	forceLeftY 	forceLeftZ 	pointLeftX 	pointLeftY 	pointLeftZ 		
5.005000 -23.294432 868.052781 -0.000000 0.426181 0.230791 -0.107997 -38.827860 -110.210571 -0.000000 0.166655 0.363318 -0.354198
5.010000 -2.270512 885.693487 -0.000000 0.421517 0.221071 -0.108132 -38.240706 -101.285358 -0.000000 0.171854 0.373099 -0.354037
5.015000 21.086328 900.730095 -0.000000 0.416259 0.211696 -0.108181 -38.310555 -92.741382 -0.000000 0.177614 0.382691 -0.353859
5.020000 45.308725 912.570718 -0.000000 0.410614 0.202667 -0.107949 -38.916781 -84.599121 -0.000000 0.183780 0.391957 -0.353719
5.025000 70.843225 920.664314 -0.000000 0.404208 0.194021 -0.107961 -40.158723 -76.660163 -0.000000 0.190458 0.400918 -0.353444
5.030000 95.881374 924.658210 -0.000000 0.397532 0.185819 -0.107734 -41.915401 -68.654201 -0.000000 0.197573 0.409508 -0.353243
5.035000 120.418541 924.141081 -0.000000 0.390432 0.178040 -0.107385 -44.180704 -60.109552 -0.000000 0.205079 0.417761 -0.352829
5.040000 145.845680 918.467958 -0.000000 0.382654 0.170747 -0.106589 -46.949007 -50.406970 -0.000000 0.213539 0.425484 -0.354070
5.045000 166.391156 908.190004 -0.000000 0.375079 0.163947 -0.106457 -49.760715 -39.248930 -0.000000 0.221254 0.433292 -0.352036
5.050000 185.725645 892.525715 -0.000000 0.367021 0.157834 -0.106266 -52.633401 -25.846896 -0.000000 0.229829 0.439986 -0.351719
5.055000 204.175133 871.163739 -0.000000 0.358560 0.152202 -0.106359 -55.216788 -9.595421 -0.000000 0.238985 0.446124 -0.352863
5.060000 219.048543 844.611130 -0.000000 0.349941 0.147076 -0.106226 -57.016902 9.783662 -0.000000 0.248045 0.451397 -0.351635
5.065000 231.857464 812.533667 -0.000000 0.341131 0.142752 -0.105963 -57.551661 32.581693 -0.000000 0.257412 0.456383 -0.351367
5.070000 242.033968 775.228935 -0.000000 0.332094 0.138897 -0.105621 -56.291112 58.621507 -0.000000 0.266840 0.460737 -0.351357
5.075000 248.927905 733.343277 -0.000000 0.322966 0.135783 -0.105412 -52.802078 87.324098 -0.000000 0.276241 0.464331 -0.351272
5.080000 253.125046 687.517996 -0.000000 0.313735 0.133371 -0.105226 -46.684650 117.823046 -0.000000 0.285728 0.467486 -0.351315
5.085000 254.331714 639.115844 -0.000000 0.304241 0.131811 -0.104963 -37.877818 148.989959 -0.000000 0.294912 0.469803 -0.351680
5.090000 253.015255 589.623095 -0.000000 0.294652 0.130968 -0.104772 -26.522025 179.905938 -0.000000 0.303916 0.471501 -0.352142
5.095000 249.983424 540.549975 -0.000000 0.284813 0.130792 -0.104604 -12.879977 210.147474 -0.000000 0.312753 0.472940 -0.352786
5.100000 245.461347 493.507742 -0.000000 0.274847 0.131850 -0.104458 2.449482 239.859943 -0.000000 0.321141 0.473138 -0.353619
5.105000 240.217568 449.343711 -0.000000 0.264814 0.132830 -0.104516 19.024724 269.633150 -0.000000 0.329488 0.472992 -0.354186
5.110000 234.059174 408.603439 -0.000000 0.254852 0.134923 -0.104525 35.857606 300.213164 -0.000000 0.337300 0.472777 -0.354747
5.115000 227.403878 370.621335 -0.000000 0.245092 0.137546 -0.104507 52.218800 332.199830 -0.000000 0.344739 0.472067 -0.355518
5.120000 220.902888 333.718395 -0.000000 0.235448 0.140649 -0.104552 67.780697 365.736767 -0.000000 0.351719 0.469345 -0.356543
5.125000 213.519895 296.698422 -0.000000 0.226386 0.144307 -0.104663 80.565849 400.799116 -0.000000 0.358245 0.466728 -0.357634
5.130000 205.785663 257.036469 -0.000000 0.217547 0.148573 -0.104746 90.365135 436.633002 -0.000000 0.364539 0.463415 -0.357937
5.135000 196.959759 213.075354 -0.000000 0.209093 0.153341 -0.104707 95.862527 472.362708 -0.000000 0.370612 0.459652 -0.358053
5.140000 186.539901 163.272862 -0.000000 0.201077 0.158873 -0.104550 96.961690 506.577174 -0.000000 0.376489 0.454695 -0.358646
5.145000 173.275849 107.369607 -0.000000 0.193592 0.164842 -0.104383 93.027066 537.845797 -0.000000 0.382392 0.449023 -0.359204
5.150000 155.914325 46.177722 -0.000000 0.186764 0.171441 -0.104226 83.656818 564.959561 -0.000000 0.388130 0.442762 -0.359247
5.155000 133.476297 -18.459693 -0.000000 0.180641 0.178259 -0.104066 68.866197 587.249146 -0.000000 0.393848 0.435817 -0.359333
5.160000 105.422221 -83.872935 -0.000000 0.175307 0.185407 -0.103935 49.256924 604.672579 -0.000000 0.399553 0.428050 -0.359667
5.165000 71.909550 -146.791379 -0.000000 0.170593 0.192596 -0.103626 25.301235 617.852504 -0.000000 0.405285 0.419674 -0.360076
5.170000 34.256446 -203.964150 -0.000000 0.166703 0.199972 -0.103620 -2.804513 627.811084 -0.000000 0.410478 0.410883 -0.360298
5.175000 -5.900141 -252.843210 -0.000000 0.163174 0.207548 -0.103602 -32.540683 635.674861 -0.000000 0.415308 0.401784 -0.360432
5.180000 -46.368964 -291.463184 -0.000000 0.160048 0.215361 -0.103634 -62.022234 642.692023 -0.000000 0.419816 0.392382 -0.360466
5.185000 -85.230580 -318.542867 -0.000000 0.156793 0.223606 -0.104442 -88.792139 650.197439 -0.000000 0.423936 0.382618 -0.360457
5.190000 -119.678909 -333.783768 -0.000000 0.154463 0.232234 -0.104611 -112.887081 659.113185 -0.000000 0.427661 0.372480 -0.360461
5.195000 -147.907958 -337.562710 -0.000000 0.152432 0.241248 -0.104738 -133.239999 670.179255 -0.000000 0.430887 0.362163 -0.360289
5.200000 -168.445646 -331.052624 -0.000000 0.150840 0.250586 -0.104810 -149.597037 683.786131 -0.000000 0.433467 0.351594 -0.360257
5.205000 -180.515892 -316.075616 -0.000000 0.149679 0.260122 -0.104862 -162.053786 700.129195 -0.000000 0.435686 0.340889 -0.359930
5.210000 -184.596672 -294.566886 -0.000000 0.148606 0.270022 -0.105081 -169.788984 719.532953 -0.000000 0.437376 0.329869 -0.359805
5.215000 -181.123047 -269.025688 -0.000000 0.148164 0.280213 -0.105228 -173.677328 741.802290 -0.000000 0.438386 0.318673 -0.359694
5.220000 -171.367895 -241.704318 -0.000000 0.148275 0.290412 -0.105352 -174.133136 766.695860 -0.000000 0.438839 0.307257 -0.359793
5.225000 -157.237705 -214.284766 -0.000000 0.148962 0.301021 -0.105584 -170.657393 794.027133 -0.000000 0.438759 0.295864 -0.359939
5.230000 -140.150912 -188.326183 -0.000000 0.150252 0.311664 -0.105872 -164.693059 823.058393 -0.000000 0.438207 0.284684 -0.359463
5.235000 -121.776424 -164.552647 -0.000000 0.152185 0.322308 -0.106118 -156.581414 853.286157 -0.000000 0.436814 0.273855 -0.359095
5.240000 -103.624190 -143.173205 -0.000000 0.154842 0.332780 -0.106391 -145.881001 884.406002 -0.000000 0.434811 0.263085 -0.358712
5.245000 -86.728818 -124.303003 -0.000000 0.158040 0.343255 -0.106682 -132.677185 916.082594 -0.000000 0.432157 0.252564 -0.358436
5.250000 -71.890623 -107.961805 -0.000000 0.161888 0.353568 -0.106926 -116.528547 948.046955 -0.000000 0.428881 0.242044 -0.358203
5.255000 -59.587588 -94.207608 -0.000000 0.166331 0.363852 -0.107267 -97.631136 979.778984 -0.000000 0.424990 0.231810 -0.358093
5.260000 -49.431197 -83.422771 -0.000000 0.171394 0.373916 -0.107657 -84.873639 1009.876001 -0.000000 0.425423 0.221890 -0.363323
5.265000 -42.788467 -74.668966 -0.000000 0.177009 0.383738 -0.108048 -65.721289 1038.807971 -0.000000 0.422196 0.212280 -0.364252
5.270000 -39.457308 -67.719359 -0.000000 0.183062 0.393124 -0.108565 -40.689603 1065.399027 -0.000000 0.416182 0.203104 -0.362466
5.275000 -39.229315 -62.075788 -0.000000 0.189915 0.402373 -0.108852 -8.089608 1088.437784 -0.000000 0.408240 0.194245 -0.359527
5.280000 -41.276959 -57.463449 -0.000000 0.196774 0.411069 -0.109396 25.066643 1106.624038 -0.000000 0.400045 0.185815 -0.358994
5.285000 -45.358733 -53.156592 -0.000000 0.204211 0.419385 -0.109895 63.174153 1118.899192 -0.000000 0.390435 0.177962 -0.356672
5.290000 -50.514953 -48.967392 -0.000000 0.212073 0.427263 -0.110563 97.063444 1124.916544 -0.000000 0.382335 0.170449 -0.359864
5.295000 -56.274026 -44.424963 -0.000000 0.220414 0.434708 -0.110981 126.590159 1124.530412 -0.000000 0.375226 0.163568 -0.356616
5.300000 -61.633582 -39.873766 -0.000000 0.229023 0.441883 -0.111396 136.913806 1119.591444 -0.000000 0.373438 0.157029 -0.364178
5.305000 -67.439329 -32.877035 -0.000000 0.238148 0.448220 -0.111583 164.362244 1105.594739 -0.000000 0.365135 0.151272 -0.363959
5.310000 -72.809098 -22.707074 -0.000000 0.247089 0.453979 -0.112171 207.788206 1081.072889 -0.000000 0.350470 0.145710 -0.356320
5.315000 -76.331337 -11.169603 -0.000000 0.256411 0.459036 -0.112481 233.119955 1051.475637 -0.000000 0.340292 0.140870 -0.360771
5.320000 -78.024613 2.397179 -0.000000 0.265934 0.463449 -0.112823 249.566351 1015.607219 -0.000000 0.331802 0.136678 -0.357946
5.325000 -77.684967 18.408161 -0.000000 0.275482 0.467205 -0.113116 263.514189 971.786197 -0.000000 0.322759 0.133024 -0.357898
5.330000 -75.214641 36.269219 -0.000000 0.285143 0.470405 -0.113208 270.957792 920.730711 -0.000000 0.314673 0.129989 -0.356423
5.335000 -70.357692 55.954879 -0.000000 0.294982 0.472842 -0.113153 277.636891 860.515713 -0.000000 0.305436 0.127704 -0.356493
5.340000 -63.367375 76.419520 -0.000000 0.304438 0.474804 -0.113169 278.569601 792.625609 -0.000000 0.296286 0.126029 -0.356496
5.345000 -54.504162 97.062338 -0.000000 0.313696 0.476235 -0.113333 274.344170 717.440576 -0.000000 0.287168 0.125080 -0.356631
5.350000 -44.055710 117.506588 -0.000000 0.323116 0.477071 -0.113357 265.852669 635.674685 -0.000000 0.278053 0.124952 -0.356700
5.355000 -32.832630 137.633110 -0.000000 0.331720 0.477327 -0.113174 251.633291 549.560592 -0.000000 0.268964 0.125577 -0.356562
5.360000 -21.206758 158.077631 -0.000000 0.340071 0.477019 -0.112845 233.292005 460.596877 -0.000000 0.260087 0.126943 -0.356491
5.365000 -9.364312 179.884927 -0.000000 0.348106 0.475900 -0.112483 212.170228 370.580104 -0.000000 0.251122 0.129030 -0.356302
5.370000 2.311386 204.286576 -0.000000 0.355643 0.474241 -0.111948 188.816426 281.795205 -0.000000 0.242352 0.131915 -0.356190
5.375000 13.684517 232.483821 -0.000000 0.362586 0.471874 -0.111452 164.478954 196.077788 -0.000000 0.233690 0.135347 -0.356141
5.380000 24.943432 265.317505 -0.000000 0.369338 0.468714 -0.110698 140.397464 114.850987 -0.000000 0.225091 0.139484 -0.356114
5.385000 35.182129 303.176164 -0.000000 0.375216 0.464929 -0.110088 116.873787 39.900249 -0.000000 0.216643 0.144148 -0.355967
5.390000 44.442501 345.657546 -0.000000 0.380895 0.460276 -0.109081 94.381779 -27.786980 -0.000000 0.208420 0.149386 -0.356058
5.395000 52.101604 391.633224 -0.000000 0.386249 0.454622 -0.107982 72.769365 -87.052179 -0.000000 0.200564 0.155114 -0.356331
5.400000 57.632338 439.280480 -0.000000 0.391788 0.448434 -0.107560 51.843448 -137.044624 -0.000000 0.193307 0.161099 -0.356596
5.405000 60.890496 486.313320 -0.000000 0.396996 0.441095 -0.107619 31.463591 -177.341266 -0.000000 0.186662 0.167631 -0.356821
5.410000 60.636578 530.574601 -0.000000 0.402047 0.433646 -0.107673 12.199719 -207.962511 -0.000000 0.180617 0.174237 -0.357065
5.415000 57.782677 570.078439 -0.000000 0.406566 0.425480 -0.107450 -5.913871 -229.557454 -0.000000 0.174595 0.181267 -0.355856
5.420000 51.597729 603.736556 -0.000000 0.411165 0.416861 -0.106903 -22.083689 -243.093457 -0.000000 0.169543 0.188698 -0.355793
5.425000 42.997817 631.014804 -0.000000 0.415309 0.407733 -0.106647 -36.143380 -249.751079 -0.000000 0.164785 0.196848 -0.355697
